<svg width="50" height="50" viewBox="0 0 50 50" fill="none" xmlns="http://www.w3.org/2000/svg">
<g clip-path="url(#clip0_2_96)">
<path d="M25 45.8334C13.4938 45.8334 4.16669 36.5063 4.16669 25.0001C4.16669 13.4938 13.4938 4.16675 25 4.16675C36.5063 4.16675 45.8334 13.4938 45.8334 25.0001C45.8334 36.5063 36.5063 45.8334 25 45.8334ZM25 41.6668C29.4203 41.6668 33.6595 39.9108 36.7851 36.7852C39.9107 33.6596 41.6667 29.4204 41.6667 25.0001C41.6667 20.5798 39.9107 16.3406 36.7851 13.215C33.6595 10.0894 29.4203 8.33342 25 8.33342C20.5797 8.33342 16.3405 10.0894 13.2149 13.215C10.0893 16.3406 8.33335 20.5798 8.33335 25.0001C8.33335 29.4204 10.0893 33.6596 13.2149 36.7852C16.3405 39.9108 20.5797 41.6668 25 41.6668ZM25 22.0543L30.8917 16.1605L33.8396 19.1084L27.9459 25.0001L33.8396 30.8918L30.8917 33.8397L25 27.9459L19.1084 33.8397L16.1604 30.8918L22.0542 25.0001L16.1604 19.1084L19.1084 16.1605L25 22.0543Z" fill="#FF0000"/>
</g>
<defs>
<clipPath id="clip0_2_96">
<rect width="50" height="50" fill="white"/>
</clipPath>
</defs>
</svg>
