<svg width="50" height="50" viewBox="0 0 50 50" fill="none" xmlns="http://www.w3.org/2000/svg">
<g clip-path="url(#clip0_2_103)">
<path d="M30.4166 16.6668H43.75C44.855 16.6668 45.9149 17.1057 46.6963 17.8871C47.4777 18.6685 47.9166 19.7283 47.9166 20.8334V25.2168C47.9172 25.7613 47.811 26.3006 47.6041 26.8043L41.1562 42.4605C40.9989 42.8422 40.7318 43.1686 40.3887 43.3982C40.0456 43.6278 39.642 43.7503 39.2291 43.7501H4.16665C3.61411 43.7501 3.08421 43.5306 2.69351 43.1399C2.30281 42.7492 2.08331 42.2193 2.08331 41.6668V20.8334C2.08331 20.2809 2.30281 19.751 2.69351 19.3603C3.08421 18.9696 3.61411 18.7501 4.16665 18.7501H11.4208C11.7543 18.7502 12.083 18.6702 12.3792 18.5168C12.6754 18.3635 12.9304 18.1412 13.1229 17.8688L24.4833 1.77092C24.6269 1.5674 24.8387 1.42209 25.0803 1.36131C25.3218 1.30054 25.5772 1.32834 25.8 1.43967L29.5791 3.32925C30.6427 3.86084 31.4923 4.74032 31.9869 5.82158C32.4815 6.90283 32.5912 8.12076 32.2979 9.273L30.4166 16.6668ZM14.5833 22.0584V39.5834H37.8333L43.75 25.2168V20.8334H30.4166C29.7821 20.8333 29.1559 20.6883 28.5859 20.4094C28.0159 20.1305 27.5171 19.725 27.1276 19.224C26.7382 18.723 26.4683 18.1397 26.3386 17.5185C26.2088 16.8973 26.2227 16.2547 26.3791 15.6397L28.2604 8.248C28.3193 8.01743 28.2974 7.77366 28.1985 7.55723C28.0996 7.3408 27.9295 7.16477 27.7166 7.05842L26.3396 6.37092L16.5271 20.2709C16.0062 21.0084 15.3396 21.6126 14.5833 22.0584ZM10.4166 22.9168H6.24998V39.5834H10.4166V22.9168Z" fill="#74B9FF"/>
</g>
<defs>
<clipPath id="clip0_2_103">
<rect width="50" height="50" fill="white"/>
</clipPath>
</defs>
</svg>
